<?xml version="1.0" encoding="UTF-8"?>
<svg width="595px" height="842px" viewBox="0 0 595 842" version="1.1" xmlns="http://www.w3.org/2000/svg" xmlns:xlink="http://www.w3.org/1999/xlink">
    <!-- Generator: Sketch 51.3 (57544) - http://www.bohemiancoding.com/sketch -->
    <title>persona1</title>
    <desc>Created with Sketch.</desc>
    <defs>
        <polygon id="path-1" points="0 309 104.250651 309 104.250651 0.941996967 0 0.941996967"></polygon>
    </defs>
    <g id="persona1" stroke="none" stroke-width="1" fill="none" fill-rule="evenodd">
        <rect fill="#FFFFFF" x="0" y="0" width="595" height="842"></rect>
        <path d="M0,39 L437,39 C456.882251,39 473,55.117749 473,75 L473,75 C473,94.882251 456.882251,111 437,111 L0,111 L0,39 Z" id="Rectangle" fill="#FFB896"></path>
        <path d="M0,131 L501,131 C520.882251,131 537,147.117749 537,167 L537,167 C537,186.882251 520.882251,203 501,203 L0,203 L0,131 Z" id="Rectangle-Copy" fill="#FFB896"></path>
        <g id="Group-3" transform="translate(47.000000, 25.000000)">
            <polygon id="Fill-1" fill="#DBBA9B" points="61 282 76 282 76 226 61 226"></polygon>
            <polygon id="Fill-2" fill="#D3AA83" points="28 282 43 282 43 226 28 226"></polygon>
            <path d="M28.2670494,281.758655 L28.2670494,287.455502 C28.2670494,287.722542 28.233212,287.975147 28.1993746,288.225347 C29.0187233,288.687253 30.8628623,290.008017 31.7378011,292.825166 C31.8876525,293.34 31.6000345,293.888514 31.0803885,294.047294 C30.9812933,294.071352 30.882198,294.090598 30.7927705,294.090598 C30.3673859,294.090598 29.9782557,293.821152 29.8501569,293.397738 C29.2604191,291.470721 28.117198,290.491576 27.483955,290.08019 C27.1866691,290.55172 26.8313763,290.972728 26.4349952,291.362462 C27.3606901,292.012018 28.7335223,293.31113 29.4465249,295.625475 C29.5842915,296.06573 29.3715992,296.522825 28.9897198,296.739343 C28.924462,296.782647 28.8688719,296.823545 28.7963632,296.845197 C28.6972679,296.876472 28.6030066,296.893312 28.5135791,296.893312 C28.1123641,296.893312 27.7425695,296.638301 27.597552,296.253379 C27.5878842,296.234133 27.5782163,296.217293 27.5685485,296.198047 C26.7951219,293.676806 25.0379934,292.765022 24.8035485,292.654357 C24.3056552,292.976729 23.8101788,293.238958 23.3775433,293.460288 C23.9286097,293.857239 24.6561141,294.487549 25.3014419,295.445043 C25.7171587,296.06573 26.0966211,296.813922 26.3745712,297.718489 C26.5292566,298.24054 26.2392216,298.781836 25.7219926,298.940617 C25.6253142,298.96708 25.5286359,298.981515 25.4343746,298.981515 C25.0138239,298.981515 24.6222767,298.712069 24.4917609,298.288655 C23.6699952,295.615852 21.7678492,294.756994 21.6760048,294.720908 C21.4657295,294.629489 21.3037933,294.45868 21.2095319,294.266218 L19.3170538,294.660764 C20.1750739,295.312726 22.5581945,297.684808 23.278448,304.283817 L45.2510135,304.283817 L45.2510135,301.014385 C45.2510135,300.256569 45.1470844,299.388089 44.9561447,298.47871 L44.187552,287.455502 L44.187552,281.758655 L43.5591429,281.758655 L28.3782295,281.758655 L28.2670494,281.758655 Z" id="Fill-3" fill="#000000"></path>
            <path d="M19.3168121,294.661245 C19.1234554,294.512088 19.0001906,294.447132 19.0001906,294.447132 L15.7783855,295.123151 C10.163792,296.807186 8.8078785,299.881751 8.84171591,301.856883 L8.84171591,304.284298 L23.2782063,304.284298 C22.5579528,297.685289 20.1748322,295.313207 19.3168121,294.661245" id="Fill-5" fill="#FFFFFF"></path>
            <polygon id="Fill-7" fill="#CECFD1" points="8.84171591 304.284298 8.83688199 304.284298 8.83688199 307.842422 45.2507719 307.842422 45.2507719 306.58902 8.84171591 306.58902 8.84171591 305.888943 8.84171591 305.386138 45.2507719 305.386138 45.2507719 304.284298 23.2782063 304.284298"></polygon>
            <polygon id="Fill-9" fill="#5C1212" points="8.84171591 305.888943 8.84171591 306.58902 45.2507719 306.58902 45.2507719 305.888943 45.2507719 305.386138 8.84171591 305.386138"></polygon>
            <path d="M21.6772133,294.719945 C21.7666407,294.758438 23.6687867,295.614889 24.4929694,298.287693 C24.6234851,298.711107 25.0150323,298.980552 25.435583,298.980552 C25.5298444,298.980552 25.6265227,298.968524 25.723201,298.939654 C26.2404301,298.780874 26.530465,298.239577 26.3733628,297.717527 C26.0954126,296.81296 25.7183671,296.067173 25.3026503,295.446486 C24.6549056,294.486586 23.9298182,293.858682 23.3763348,293.461731 C22.8518549,293.096055 22.4796434,292.934869 22.4361381,292.915623 C21.9382448,292.708727 21.3702596,292.946898 21.1648182,293.437674 C21.0391364,293.719148 21.0729738,294.015057 21.2107404,294.267662 C21.3050017,294.460123 21.464521,294.628526 21.6772133,294.719945" id="Fill-11" fill="#CECFD1"></path>
            <path d="M27.5685485,296.197806 C27.5782163,296.217052 27.5878842,296.233892 27.597552,296.253138 C27.7425695,296.638061 28.1123641,296.893072 28.5135791,296.893072 C28.6030066,296.893072 28.6972679,296.876231 28.7963632,296.847362 C28.8688719,296.823304 28.9268789,296.782406 28.9897198,296.739103 C29.3715992,296.522584 29.5842915,296.065489 29.4465249,295.625234 C28.7335223,293.31089 27.3606901,292.011778 26.4349952,291.362221 C25.925017,291.001357 25.5503885,290.840171 25.5093003,290.825736 C25.006573,290.618841 24.431337,290.859417 24.2258955,291.352598 C24.0180372,291.850591 24.259733,292.418352 24.7600433,292.627653 C24.7600433,292.627653 24.7914637,292.644493 24.8035485,292.654116 C25.0379934,292.764782 26.7951219,293.676566 27.5685485,296.197806" id="Fill-13" fill="#CECFD1"></path>
            <path d="M29.850882,293.397257 C29.9789808,293.820671 30.368111,294.090117 30.7934956,294.090117 C30.8829231,294.090117 30.9820184,294.070871 31.0811136,294.049219 C31.6007596,293.888032 31.8883776,293.341924 31.7361093,292.824685 C30.8635874,290.007536 29.0170315,288.686772 28.1976827,288.227271 C27.9777395,288.102172 27.8182203,288.03481 27.7964677,288.025187 C27.3034082,287.815886 26.7305892,288.046839 26.5203138,288.544832 C26.3076215,289.038013 26.5396495,289.608179 27.0351259,289.822292 C27.0592955,289.836727 27.2333164,289.918523 27.4846801,290.079709 C28.1155061,290.491095 29.2611442,291.47024 29.850882,293.397257" id="Fill-15" fill="#CECFD1"></path>
            <path d="M60.1643698,281.906609 L60.1643698,287.61308 L59.400611,298.631476 C59.2072544,299.538449 59.1033252,300.414147 59.1033252,301.167151 L59.1033252,304.434177 L81.0807247,304.434177 C81.7961442,297.837574 84.1744309,295.463086 85.037285,294.81353 L83.1448068,294.416579 C83.0505455,294.616257 82.8934432,294.782255 82.6735,294.878485 C82.5985743,294.90976 80.6843435,295.763806 79.8577439,298.446232 C79.7320621,298.862429 79.3405149,299.139092 78.9199642,299.139092 C78.8257028,299.139092 78.7314414,299.122252 78.6323462,299.093383 C78.1175341,298.937008 77.8250822,298.388494 77.9846014,297.871255 C78.2625516,296.973905 78.6371801,296.21609 79.0504799,295.605026 C79.6982247,294.649938 80.425729,294.007599 80.9840463,293.615459 C80.5369091,293.396535 80.0486836,293.12709 79.5483733,292.804717 C79.3211792,292.917788 77.5616337,293.83679 76.7857902,296.355624 C76.7761224,296.37487 76.7664545,296.389305 76.7567867,296.410957 C76.6117692,296.795879 76.2468086,297.046078 75.8480105,297.046078 C75.7489152,297.046078 75.6522369,297.026832 75.5579755,296.997963 C75.4878837,296.983528 75.4298767,296.933007 75.3646189,296.901732 C74.9827395,296.677996 74.7676302,296.223307 74.9078138,295.783052 C75.6159825,293.466302 76.9936486,292.16719 77.9193435,291.515228 C77.5205455,291.132712 77.1676696,290.709297 76.8752177,290.237768 C76.2468086,290.649153 75.0939196,291.61627 74.5041818,293.548098 C74.3736661,293.969107 73.9869528,294.243364 73.5615682,294.243364 C73.4673068,294.243364 73.3730455,294.231335 73.2739502,294.197654 C72.7567212,294.038874 72.4666862,293.495171 72.6213715,292.977932 C73.4914764,290.160783 75.3428663,288.837613 76.1549642,288.382924 C76.1162928,288.13513 76.0872893,287.875308 76.0872893,287.61308 L76.0872893,281.906609 L75.9785262,281.906609 L60.7951958,281.906609 L60.1643698,281.906609 Z" id="Fill-17" fill="#000000"></path>
            <path d="M81.0814497,304.434659 L95.5131062,304.434659 L95.5131062,302.007243 C95.5445267,300.029706 94.1958641,296.964763 88.5764366,295.280729 L85.3497976,294.607115 C85.3497976,294.607115 85.2289497,294.667259 85.0380101,294.814011 C84.1727391,295.463567 81.7968693,297.838055 81.0814497,304.434659" id="Fill-19" fill="#FFFFFF"></path>
            <mask id="mask-2" fill="white">
                <use xlink:href="#path-1"></use>
            </mask>
            <g id="Clip-22"></g>
            <polygon id="Fill-21" fill="#CECFD1" mask="url(#mask-2)" points="59.101875 308 95.5109309 308 95.5109309 306.741786 59.101875 306.741786"></polygon>
            <polygon id="Fill-23" fill="#CECFD1" mask="url(#mask-2)" points="59.1023584 304.434659 59.1023584 305.536498 95.5114143 305.536498 95.5114143 304.434659 81.0821748 304.434659"></polygon>
            <polygon id="Fill-24" fill="#83202B" mask="url(#mask-2)" points="59.1023584 306.04652 59.1023584 306.741786 95.5114143 306.741786 95.5114143 306.04652 95.5114143 305.536498 59.1023584 305.536498"></polygon>
            <path d="M79.0516884,295.605748 C78.6359716,296.216811 78.2637601,296.972221 77.9858099,297.869571 C77.8238737,298.38681 78.1163256,298.93773 78.6311377,299.091699 C78.730233,299.122974 78.8244943,299.139814 78.9187557,299.139814 C79.3393064,299.139814 79.7308536,298.863151 79.8589524,298.446954 C80.685552,295.762122 82.5997828,294.910482 82.6747085,294.876801 C82.8946517,294.780571 83.049337,294.616979 83.1435983,294.4173 C83.276531,294.169507 83.3152024,293.868786 83.1895205,293.594529 C82.9816622,293.098942 82.4112601,292.865583 81.9182006,293.072479 C81.8746954,293.089319 81.4976499,293.248099 80.9852548,293.616181 C80.4245205,294.008321 79.6994331,294.650659 79.0516884,295.605748" id="Fill-25" fill="#CECFD1" mask="url(#mask-2)"></path>
            <path d="M74.906847,295.78209 C74.7666635,296.22475 74.9817727,296.677034 75.3636521,296.903176 C75.4313269,296.934451 75.486917,296.982566 75.5594257,296.999406 C75.6536871,297.028275 75.7503654,297.045116 75.8494607,297.045116 C76.2482587,297.045116 76.6108024,296.797322 76.7582369,296.4124 C76.7679047,296.388342 76.7751556,296.373908 76.7848234,296.354662 C77.5630839,293.835827 79.3202124,292.919232 79.5474065,292.806161 C79.5619082,292.798943 79.5933287,292.786915 79.5933287,292.786915 C80.0984729,292.58483 80.3329178,292.007447 80.1226425,291.507048 C79.917201,291.011461 79.3492159,290.770885 78.8392378,290.972969 C78.7957325,290.992215 78.4283549,291.160619 77.9183767,291.516672 C76.9926818,292.166228 75.6150157,293.46534 74.906847,295.78209" id="Fill-26" fill="#CECFD1" mask="url(#mask-2)"></path>
            <path d="M72.6220966,292.976729 C72.4674113,293.496374 72.7574462,294.037671 73.2746753,294.198857 C73.3737705,294.230132 73.4680319,294.242161 73.5622933,294.242161 C73.9852609,294.242161 74.3743912,293.967904 74.5024899,293.546895 C75.0922277,291.617473 76.2475337,290.64795 76.8759427,290.236565 C77.1200555,290.068161 77.2964934,289.986365 77.3158291,289.979148 C77.8137225,289.767441 78.0457504,289.194869 77.8354751,288.696876 C77.6227828,288.2061 77.0596316,287.963118 76.5569043,288.17242 C76.5303177,288.191666 76.3828833,288.25181 76.1556892,288.384127 C75.3435913,288.836411 73.4897845,290.15958 72.6220966,292.976729" id="Fill-27" fill="#CECFD1" mask="url(#mask-2)"></path>
            <path d="M74.1776508,215.385491 C74.1438134,215.385491 74.1196438,215.383085 74.0858064,215.383085 C73.3534681,215.383085 72.8144865,216.030236 72.8289882,216.985324 C72.8289882,217.774414 73.2495389,218.455245 74.1317286,218.455245 C74.1317286,218.455245 74.1607321,218.448028 74.1776508,218.443217 C74.7359681,218.435999 75.1275153,218.156931 75.318455,217.844181 C75.3885468,217.723893 75.432052,217.579547 75.432052,217.310102 C75.432052,216.371854 75.086427,215.44323 74.1776508,215.385491" id="Fill-28" fill="#C87553" mask="url(#mask-2)"></path>
            <path d="M76.0113969,221.973193 C75.5014187,222.425477 74.8875114,222.755066 74.1769257,222.973991 C73.6621136,223.132771 73.1037963,223.226596 72.4995568,223.248248 C72.1345962,223.284334 71.7672185,223.267494 71.5279397,223.248248 L71.5279397,221.573836 C71.796222,221.607517 72.0355009,221.607517 72.4608855,221.573836 C73.0699589,221.532938 73.6887002,221.371752 74.1769257,221.071032 C74.2083462,221.054192 74.2421836,221.034945 74.2687701,221.013294 C74.8609248,220.604314 75.2597229,220.017307 75.4313269,219.319636 L75.3878217,219.312419 C75.0905358,219.617951 74.6941547,219.827252 74.1769257,219.918671 C73.985986,219.952352 73.7781276,219.969192 73.5485166,219.969192 C71.9944126,219.969192 70.6820044,218.889004 70.6820044,217.118363 C70.6820044,215.326069 72.1249283,213.817655 74.1455052,213.817655 L74.1648409,213.817655 C76.5165411,213.836901 77.6235079,215.631601 77.6235079,217.763107 C77.6235079,219.658849 77.0120175,221.059003 76.0113969,221.973193 Z M52.388049,182.542731 L52.388049,194.472912 L55.7186171,194.472912 L55.7186171,226.072614 L60.794229,226.072614 L75.9775594,226.072614 L80.5117727,226.072614 L81.1522666,184.274881 C81.2296093,184.060768 81.3166198,183.849061 81.3915455,183.632542 L52.4750594,182.542731 L52.388049,182.542731 Z" id="Fill-29" fill="#C87553" mask="url(#mask-2)"></path>
            <path d="M23.0887168,182.543453 C23.2772395,183.313297 23.5092675,184.061489 23.7968855,184.776001 L24.4325455,226.073336 L28.377021,226.073336 L43.5603514,226.073336 L49.225701,226.073336 L49.225701,194.473633 L52.3870822,194.473633 L52.3870822,182.543453 L23.0887168,182.543453 Z" id="Fill-30" fill="#B75428" mask="url(#mask-2)"></path>
            <path d="M79.8729707,137.973318 C79.8729707,137.973318 79.4330844,127.23399 78.7394174,120.673473 C78.6644917,119.942121 78.5992338,119.331057 78.5363929,118.794572 C78.2681106,118.371158 77.9708247,117.930903 77.6614541,117.49546 C77.1732286,122.773705 76.7526779,132.897157 79.8729707,137.973318" id="Fill-31" fill="#A74B24" mask="url(#mask-2)"></path>
            <path d="M27.3606901,119.497777 C26.9546412,119.731136 26.5389244,120.144927 26.1183737,120.671789 C25.4222898,127.234712 24.9848204,137.97404 24.9848204,137.97404 C27.7474034,133.480073 27.7377356,125.03825 27.3606901,119.497777" id="Fill-32" fill="#A74B24" mask="url(#mask-2)"></path>
            <path d="M52.4651499,105.479153 C52.5932487,105.479153 52.7140966,105.46953 52.8421954,105.46953 L52.8421954,94.443916 L59.4525756,94.443916 L59.4525756,93.7654907 L59.4525756,86.3701741 C57.4634191,86.6853291 55.3582487,86.8729786 53.1080608,86.8729786 C53.0669725,86.8729786 53.0210503,86.8705728 52.9896298,86.8705728 L52.9896298,23.3945056 C51.6675538,22.2493622 39.8268763,12.2221404 32.9627155,14.7842784 C25.6780039,17.502791 18.533476,25.8796592 22.446531,34.0327913 L17.0446298,41.9597817 L17.0397959,41.9621875 C17.0397959,41.9621875 17.0397959,41.9333183 17.032545,41.8731743 C15.188406,42.5010785 11.3067714,44.6398022 13.4385284,51.2388112 C15.0820599,56.3221892 17.7455476,58.1048599 19.628358,58.713518 C23.2102898,71.8345516 30.9614742,83.8946435 46.2680695,86.6179677 L46.2680695,93.7654907 L43.4402286,93.7654907 C41.9707181,93.955546 40.5833842,94.1864993 39.266142,94.4487275 C39.270976,94.4896255 41.2939698,105.508022 52.4651499,105.479153" id="Fill-33" fill="#D3AA83" mask="url(#mask-2)"></path>
            <path d="M27.3606901,119.497777 C27.1455809,116.341415 26.8168746,114.120895 26.8168746,114.120895 L23.4621368,100.927689 C22.0554672,101.969384 20.8687408,103.039949 19.8753711,104.110514 L19.8681202,103.94211 C19.8681202,103.94211 19.5660004,104.305381 19.0511884,105.063196 C17.0040249,107.509858 15.9091429,109.84826 15.326656,111.537106 C10.429899,121.480126 3.16694012,141.957984 2.01163418,177.317894 L11.4764419,177.317894 C11.6915511,177.317894 11.8969926,177.39969 12.0420101,177.532007 C12.6897548,165.303512 14.75142,144.070244 21.376302,130.294843 C21.376302,130.294843 23.7763413,123.642907 26.1183737,120.671789 C26.5389244,120.144927 26.9546412,119.731136 27.3606901,119.497777" id="Fill-34" fill="#D3AA83" mask="url(#mask-2)"></path>
            <path d="M52.8426788,94.4441566 L52.8426788,105.46977 C63.6899865,105.243628 65.6622242,94.4441566 65.6622242,94.4441566 C65.9498422,94.4609969 66.2253754,94.5018949 66.5081595,94.5259525 C64.001774,93.9461636 62.3437408,93.7657313 62.3437408,93.7657313 L61.6742434,93.7657313 L59.450642,93.7657313 L59.450642,94.4441566 L52.8426788,94.4441566 Z" id="Fill-35" fill="#DBBA9B" mask="url(#mask-2)"></path>
            <path d="M89.0499187,41.7805524 C88.7768024,47.2392295 88.0202946,53.1574075 86.4613566,58.866284 C88.3320822,58.4284351 91.3895341,56.8358197 93.1901678,51.240014 C95.4983628,44.1045198 90.7732098,42.1775033 89.1997701,41.7492774 C89.1876853,41.8743771 89.1780175,41.9609846 89.1780175,41.9609846 L89.0499187,41.7805524 Z" id="Fill-36" fill="#D3AA83" mask="url(#mask-2)"></path>
            <path d="M35.7871726,5.37221026 C37.7787461,4.33292048 39.9370896,3.38745546 42.3540476,2.58874201 C40.0579375,3.30325374 37.8609226,4.24150147 35.7871726,5.37221026" id="Fill-37" fill="#DBBA9B" mask="url(#mask-2)"></path>
            <path d="M63.8676329,2.59283181 C66.2870079,3.39395102 68.4477684,4.33460451 70.427257,5.37148853 C68.353507,4.2431855 66.163743,3.30734354 63.8676329,2.59283181" id="Fill-38" fill="#DBBA9B" mask="url(#mask-2)"></path>
            <path d="M57.8276547,1.28193133 C60.9551984,1.75827249 63.7661206,2.56179746 63.8386294,2.58104357 C61.9050629,1.97960272 59.8917369,1.55137684 57.8276547,1.28193133" id="Fill-39" fill="#DBBA9B" mask="url(#mask-2)"></path>
            <path d="M42.4432334,2.56227861 C42.8831198,2.44199044 45.4982684,1.71785566 48.3865332,1.28241249 C46.3466206,1.54945222 44.3598811,1.97286658 42.4432334,2.56227861" id="Fill-40" fill="#DBBA9B" mask="url(#mask-2)"></path>
            <path d="M83.7674152,34.0323102 C87.6853042,25.879178 80.5359423,17.5023099 73.2584816,14.7837972 C65.9761871,12.0676904 53.1058855,23.5046896 53.1058855,23.5046896 C53.1058855,23.5046896 53.0647972,23.4637916 52.9898715,23.3940244 L52.9898715,86.8700917 C53.021292,86.8700917 53.0672142,86.8724975 53.1058855,86.8724975 C55.3584904,86.8724975 57.4636608,86.6872537 59.4504003,86.3696929 C75.1316241,83.8460471 82.8948934,71.9375183 86.4599065,58.8646 C88.0212614,53.1581292 88.7753523,47.2375455 89.0508855,41.7812741 L83.7674152,34.0323102 Z" id="Fill-41" fill="#DBBA9B" mask="url(#mask-2)"></path>
            <path d="M17.0439047,41.95906 L22.4458059,34.0320696 C18.5327509,25.8789375 25.6772788,17.5020693 32.9619904,14.7835567 C39.8261512,12.2238244 51.6668287,22.2510463 52.9889047,23.3937839 C53.0638304,23.4659568 53.1073357,23.504449 53.1073357,23.504449 L53.1073357,0.964851719 C51.6813304,0.88065 49.9918767,1.03461886 48.3870166,1.28241249 C45.4963348,1.71785566 42.8811862,2.44199044 42.4437168,2.56227861 L42.376042,2.58152472 L42.371208,2.58393049 L42.3542893,2.58393049 C39.9373313,3.38745546 37.7789878,4.33292048 35.7874143,5.37221026 C22.905028,12.1203766 18.6487649,23.3192052 17.3629432,31.5589448 C17.3484414,31.6455523 17.3363566,31.7369713 17.3194379,31.8235788 C16.5170079,37.1788081 16.9472264,41.2228964 17.0318199,41.8724525 C17.0390708,41.9325966 17.0390708,41.9614658 17.0390708,41.9614658 L17.0439047,41.95906 Z" id="Fill-42" fill="#000000" mask="url(#mask-2)"></path>
            <path d="M73.2594484,14.7837972 C80.5369091,17.5023099 87.686271,25.879178 83.768382,34.0323102 L89.0494353,41.7812741 L89.1775341,41.9617063 C89.1775341,41.9617063 89.1872019,41.8750989 89.2017037,41.7499992 C89.4748199,39.3851338 91.5050647,16.4124991 70.4267736,5.37245084 C68.447285,4.33316105 66.2865245,3.39491333 63.8671495,2.59379412 C63.8671495,2.58898259 63.8598986,2.58417106 63.8598986,2.58417106 L63.8405629,2.5817653 C63.7656372,2.56251919 60.954715,1.75899422 57.8271713,1.28265306 C56.2271451,1.03485943 54.5425253,0.880890576 53.1068523,0.965092295 L53.1068523,23.5046896 C53.1068523,23.5046896 65.9747369,12.0676904 73.2594484,14.7837972" id="Fill-43" fill="#333333" mask="url(#mask-2)"></path>
            <path d="M6.51225175,187.105983 L1.84993969,187.105983 C0.711552448,188.246315 0.000966783217,189.831713 0.000966783217,191.580703 L0.000966783217,196.97683 C0.000966783217,200.448347 2.76838374,203.255873 6.18837937,203.255873 C9.60595804,203.255873 12.3782089,200.448347 12.3782089,196.97683 L12.3782089,193.122797 L13.1758051,195.232652 C13.5165962,196.199769 14.5873086,196.704979 15.5589257,196.365766 C16.5329598,196.019336 17.038104,194.955989 16.692479,193.984061 L15.6507701,191.222244 C15.6266005,191.138043 15.5830953,191.06587 15.544424,190.993697 L15.5492579,190.993697 C15.5492579,190.993697 14.4350402,188.609585 11.97216,186.93758 C11.8295594,187.036216 11.6627893,187.105983 11.4766836,187.105983 L6.51225175,187.105983 Z" id="Fill-44" fill="#D3AA83" mask="url(#mask-2)"></path>
            <path d="M102.399745,187.105983 C102.399745,148.515132 95.470326,125.653163 90.2811171,113.944312 C88.9783767,108.158451 85.5148759,104.001292 81.4374677,101.025363 L78.1117334,114.119933 L78.0392247,114.119933 C78.0392247,114.119933 77.843451,115.443103 77.6621792,117.495219 C77.9715498,117.930662 78.2688357,118.370917 78.537118,118.794331 C81.4374677,123.324384 82.1383855,127.202474 83.2284336,130.296286 C90.2061914,150.131805 92.4007893,182.652915 92.6569869,186.689786 C89.9282413,188.369009 88.6980096,190.993697 88.6980096,190.993697 L88.7052605,190.993697 C88.6665892,191.06587 88.6351687,191.138043 88.6037483,191.222244 L87.5572054,193.984061 C87.2115804,194.955989 87.7191416,196.019336 88.6907587,196.365766 C89.6623759,196.704979 90.7355052,196.199769 91.0787133,195.232652 L91.8763094,193.122797 L91.8763094,196.97683 C91.8763094,200.448347 94.6437264,203.255873 98.0613051,203.255873 C101.481301,203.255873 104.251135,200.448347 104.251135,196.97683 L104.251135,191.580703 C104.251135,189.831713 103.545383,188.246315 102.399745,187.105983" id="Fill-45" fill="#DBBA9B" mask="url(#mask-2)"></path>
            <path d="M52.1439362,126.440329 C49.4756145,126.440329 47.5275463,128.790759 47.5783024,132.25987 C47.5783024,135.117917 49.1203217,137.579013 52.2986215,137.579013 C52.3614624,137.579013 52.4122185,137.564579 52.4750594,137.564579 L52.4750594,126.464386 C52.3662963,126.454763 52.2575332,126.440329 52.1439362,126.440329" id="Fill-46" fill="#D1652C" mask="url(#mask-2)"></path>
            <path d="M52.474576,182.543453 L52.474576,153.99907 C50.6062675,154.562019 48.5808566,154.91326 46.3959266,154.999868 C45.0617657,155.096098 43.7276049,155.045577 42.8575,154.999868 L42.8575,148.915692 C43.8315341,149.01914 44.699222,149.01914 46.2436582,148.915692 C48.4600087,148.773752 50.7174476,148.169905 52.474576,147.0825 L52.474576,142.896472 C51.7760752,143.026383 51.0195673,143.093745 50.2002185,143.093745 C44.5493706,143.093745 39.7782955,139.157916 39.7782955,132.722499 C39.7782955,126.231749 45.0110096,120.76826 52.3513112,120.76826 C52.3923995,120.76826 52.4262369,120.775478 52.474576,120.775478 L52.474576,114.121136 L52.4552404,114.121136 L52.4552404,105.479634 L52.4649082,105.479634 C41.2937281,105.508503 39.2707343,94.4877009 39.2659003,94.4492087 L39.2610664,94.4443972 C30.5527666,94.9856939 23.4614117,100.918306 23.4614117,100.918306 L23.4614117,100.92793 L26.8185664,114.121136 C26.8185664,114.121136 27.1472727,116.33925 27.359965,119.498017 C27.7394274,125.03849 27.7490953,133.480314 24.9840953,137.97428 L22.1731731,182.543453 L23.0892002,182.543453 L52.3875656,182.543453 L52.474576,182.543453 Z" id="Fill-47" fill="#D1652C" mask="url(#mask-2)"></path>
            <path d="M56.6145835,135.38207 C56.8683641,134.924975 57.0206324,134.410142 57.0206324,133.435807 C57.0206324,130.024435 55.7638142,126.673207 52.4743344,126.463905 L52.4743344,137.564097 C54.4828265,137.511171 55.9112487,136.522402 56.6145835,135.38207" id="Fill-48" fill="#D98056" mask="url(#mask-2)"></path>
            <path d="M57.0203907,140.743314 L56.8705393,140.692793 C55.7829082,141.809067 54.3399843,142.564477 52.4740927,142.896472 L52.4740927,147.0825 C52.5852727,147.015139 52.7061206,146.945372 52.8124668,146.875605 C54.9708103,145.39606 56.4113173,143.245308 57.0203907,140.743314" id="Fill-49" fill="#D98056" mask="url(#mask-2)"></path>
            <path d="M77.6614541,117.496181 C77.842726,115.44166 78.0384996,114.120895 78.0384996,114.120895 L78.1134253,114.120895 L81.4367426,101.023919 L81.468163,100.918066 C81.468163,100.918066 74.8215284,95.3848101 66.5096097,94.5259525 C66.2268256,94.5018949 65.9488754,94.4609969 65.6612574,94.4441566 C65.6612574,94.4441566 63.6914366,105.243628 52.841712,105.46977 C52.7136132,105.46977 52.5927653,105.479393 52.4646665,105.479393 L52.4549987,105.479393 L52.4549987,114.120895 L52.4743344,114.120895 L52.4743344,120.775237 C60.9554401,120.842598 64.9748413,127.345377 64.9748413,135.075095 C64.9748413,141.970013 62.7705756,147.029333 59.1330538,150.344475 C57.2840809,152.006857 55.0338929,153.216956 52.4743344,153.998829 L52.4743344,182.543212 L81.3908204,183.633023 L82.7733204,183.690761 L79.8729707,137.97404 C76.7526779,132.895473 77.1732286,122.772021 77.6614541,117.496181" id="Fill-50" fill="#D98056" mask="url(#mask-2)"></path>
            <path d="M46.2431748,148.916895 C44.6987386,149.020343 43.8310507,149.020343 42.8570166,148.916895 L42.8570166,154.998665 C43.7271215,155.04678 45.0612823,155.094895 46.3954432,154.998665 C48.5803733,154.912057 50.6057841,154.563222 52.4740927,153.997867 L52.4740927,147.081297 C50.7193811,148.168702 48.4595253,148.772549 46.2431748,148.916895" id="Fill-51" fill="#CBC9C8" mask="url(#mask-2)"></path>
            <path d="M39.7782955,132.722499 C39.7782955,139.157916 44.5493706,143.093745 50.2002185,143.093745 C51.0195673,143.093745 51.7760752,143.026383 52.474576,142.896472 L52.474576,137.5653 C52.4141521,137.5653 52.360979,137.579735 52.3005551,137.579735 C49.1198383,137.579735 47.580236,135.118639 47.580236,132.260592 C47.5270629,128.789075 49.4775481,126.44105 52.1434528,126.44105 C52.2570498,126.44105 52.3658129,126.455485 52.474576,126.462702 L52.474576,120.775478 C52.4262369,120.775478 52.3923995,120.76826 52.3513112,120.76826 C45.0110096,120.76826 39.7782955,126.231749 39.7782955,132.722499" id="Fill-52" fill="#CBC9C8" mask="url(#mask-2)"></path>
            <path d="M57.0203907,133.43677 C57.0203907,134.408698 56.8705393,134.923532 56.6143418,135.383032 C55.911007,136.520958 54.4825848,137.509727 52.4740927,137.56506 L52.4740927,142.896231 C54.3399843,142.564236 55.7829082,141.808826 56.8705393,140.694958 L57.0203907,140.743073 C56.4113173,143.245067 54.9708103,145.39582 52.8124668,146.875364 C52.7061206,146.945131 52.5852727,147.017304 52.4740927,147.08226 L52.4740927,153.998829 C55.0336512,153.216956 57.2838392,152.006857 59.1328121,150.344475 C62.7703339,147.029333 64.9745997,141.970013 64.9745997,135.075095 C64.9745997,127.345377 60.9551984,120.842598 52.4740927,120.775237 L52.4740927,126.464867 C55.7635726,126.671763 57.0203907,130.025397 57.0203907,133.43677" id="Fill-53" fill="#EDECEB" mask="url(#mask-2)"></path>
            <path d="M75.3174882,217.845144 C75.1265485,218.157893 74.7374183,218.434556 74.176684,218.444179 C74.1597653,218.44899 74.1452635,218.456208 74.1452635,218.456208 C73.2509891,218.456208 72.8304384,217.775377 72.8304384,216.986286 C72.8135197,216.028792 73.3549183,215.384048 74.0848396,215.384048 C74.118677,215.384048 74.1452635,215.386454 74.176684,215.386454 C75.0854602,215.444192 75.4310852,216.372817 75.4310852,217.308658 C75.4310852,217.58051 75.38758,217.72245 75.3174882,217.845144 M74.176684,213.817896 L74.1452635,213.817896 C72.1246866,213.817896 70.6817627,215.326309 70.6817627,217.118603 C70.6817627,218.889245 71.9941709,219.969433 73.5506919,219.969433 C73.7778859,219.969433 73.9857443,219.952592 74.176684,219.918912 C74.693913,219.827493 75.0902941,219.618191 75.38758,219.310254 L75.4310852,219.319877 C75.2618982,220.015142 74.8631001,220.602149 74.2685284,221.011128 C74.2419419,221.035186 74.2081045,221.054432 74.176684,221.071272 C73.6884585,221.371993 73.0697172,221.533179 72.4606438,221.574077 C72.0376761,221.605352 71.7959803,221.605352 71.527698,221.574077 L71.527698,223.248488 C71.7669768,223.267734 72.1343545,223.284575 72.4993151,223.248488 C73.1035546,223.226836 73.6618719,223.133012 74.176684,222.974231 C74.8872697,222.755307 75.501177,222.425717 76.0111552,221.973434 C77.0117758,221.059244 77.6232662,219.659089 77.6232662,217.763348 C77.6232662,215.631841 76.5162994,213.837142 74.176684,213.817896" id="Fill-54" fill="#EDECEB" mask="url(#mask-2)"></path>
            <path d="M2.01115079,177.318375 L1.55434572,177.318375 C1.04678453,177.318375 0.638318619,177.722544 0.638318619,178.225348 L0.638318619,186.195642 C0.638318619,186.698447 1.04678453,187.105021 1.55434572,187.105021 L1.85163156,187.105021 L6.51152666,187.105021 L11.4759585,187.105021 C11.6620642,187.105021 11.8288344,187.035254 11.9714349,186.936617 C12.2179646,186.77062 12.3823177,186.505986 12.3823177,186.195642 L12.3823177,178.225348 C12.3823177,177.941468 12.2493851,177.693674 12.0415267,177.532488 C11.8965092,177.400171 11.6910677,177.318375 11.4759585,177.318375 L2.01115079,177.318375 Z" id="Fill-55" fill="#8D3D1F" mask="url(#mask-2)"></path>
        </g>
        <text id="Lei-Li" font-family="OpenSans-Bold, Open Sans" font-size="36" font-weight="bold" fill="#2C2D32">
            <tspan x="219" y="90">Lei Li</tspan>
        </text>
        <text id="Newcomer" font-family="OpenSans-Bold, Open Sans" font-size="26" font-weight="bold" fill="#2C2D32">
            <tspan x="219" y="177">Newcomer</tspan>
        </text>
        <g id="Group-5" transform="translate(219.000000, 233.000000)" fill="#2C2D32">
            <text id="INFO" font-family="OpenSans-Bold, Open Sans" font-size="22" font-weight="bold">
                <tspan x="0" y="24">INFO</tspan>
            </text>
            <text id="Age:-24" font-family="OpenSans-Regular, Open Sans" font-size="18" font-weight="normal">
                <tspan x="0" y="64">Age: 24</tspan>
            </text>
            <text id="City:-Atlanta" font-family="OpenSans-Regular, Open Sans" font-size="18" font-weight="normal">
                <tspan x="148" y="64">City: Atlanta</tspan>
            </text>
            <text id="Major:-Computer-Scie" font-family="OpenSans-Regular, Open Sans" font-size="18" font-weight="normal">
                <tspan x="0" y="93">Major: Computer Science</tspan>
            </text>
        </g>
        <g id="Group-2" transform="translate(47.000000, 523.000000)" fill="#2C2D32">
            <text id="User-Needs" font-family="OpenSans-Bold, Open Sans" font-size="22" font-weight="bold">
                <tspan x="0" y="24">User Needs</tspan>
            </text>
            <g id="Group-Copy-3" transform="translate(0.000000, 45.000000)">
                <text id="Looking-for-an-alter" font-family="OpenSans-Regular, Open Sans" font-size="18" font-weight="normal">
                    <tspan x="12" y="19">Looking for an alternative meal solution</tspan>
                </text>
                <circle id="Oval" cx="3.5" cy="13.5" r="3.5"></circle>
            </g>
            <g id="Group-Copy-4" transform="translate(0.000000, 74.000000)">
                <text id="Needs-straightforwar" font-family="OpenSans-Regular, Open Sans" font-size="18" font-weight="normal">
                    <tspan x="12" y="19">Needs straightforward illustration of food</tspan>
                </text>
                <circle id="Oval" cx="3.5" cy="13.5" r="3.5"></circle>
            </g>
            <g id="Group-Copy-5" transform="translate(0.000000, 103.000000)">
                <text id="Wants-better-communi" font-family="OpenSans-Regular, Open Sans" font-size="18" font-weight="normal">
                    <tspan x="12" y="19">Wants better communication with delivery drivers</tspan>
                </text>
                <circle id="Oval" cx="3.5" cy="13.5" r="3.5"></circle>
            </g>
        </g>
        <g id="Group-2-Copy" transform="translate(47.000000, 675.000000)" fill="#2C2D32">
            <text id="User-Frustrations" font-family="OpenSans-Bold, Open Sans" font-size="22" font-weight="bold">
                <tspan x="0" y="24">User Frustrations</tspan>
            </text>
            <g id="Group-Copy-3" transform="translate(0.000000, 45.000000)">
                <text id="There-are-few-choice" font-family="OpenSans-Regular, Open Sans" font-size="18" font-weight="normal">
                    <tspan x="12" y="19">There are few choices on campus</tspan>
                </text>
                <circle id="Oval" cx="3.5" cy="13.5" r="3.5"></circle>
            </g>
            <g id="Group-Copy-4" transform="translate(0.000000, 74.000000)">
                <text id="Unable-to-understand" font-family="OpenSans-Regular, Open Sans" font-size="18" font-weight="normal">
                    <tspan x="12" y="19">Unable to understand menus</tspan>
                </text>
                <circle id="Oval" cx="3.5" cy="13.5" r="3.5"></circle>
            </g>
            <g id="Group-Copy-5" transform="translate(0.000000, 103.000000)">
                <text id="Struggles-to-communi" font-family="OpenSans-Regular, Open Sans" font-size="18" font-weight="normal">
                    <tspan x="12" y="19">Struggles to communicate well</tspan>
                </text>
                <circle id="Oval" cx="3.5" cy="13.5" r="3.5"></circle>
            </g>
        </g>
        <g id="Group-4" transform="translate(47.000000, 371.000000)" fill="#2C2D32">
            <text id="User-Features" font-family="OpenSans-Bold, Open Sans" font-size="22" font-weight="bold">
                <tspan x="0" y="24">User Features</tspan>
            </text>
            <g id="Group" transform="translate(0.000000, 45.000000)">
                <text id="Getting-tired-of-ins" font-family="OpenSans-Regular, Open Sans" font-size="18" font-weight="normal">
                    <tspan x="12" y="19">Getting tired of instant food and the dining hall on campus</tspan>
                </text>
                <circle id="Oval" cx="3.5" cy="13.5" r="3.5"></circle>
            </g>
            <g id="Group-Copy-2" transform="translate(0.000000, 74.000000)">
                <text id="Unfamiliar-with-fore" font-family="OpenSans-Regular, Open Sans" font-size="18" font-weight="normal">
                    <tspan x="12" y="19">Unfamiliar with foreign food jargon</tspan>
                </text>
                <circle id="Oval" cx="3.5" cy="13.5" r="3.5"></circle>
            </g>
            <g id="Group-Copy" transform="translate(0.000000, 103.000000)">
                <text id="Does-not-speak-Engli" font-family="OpenSans-Regular, Open Sans" font-size="18" font-weight="normal">
                    <tspan x="11" y="19">Does not speak English very well</tspan>
                </text>
                <circle id="Oval" cx="3.5" cy="13.5" r="3.5"></circle>
            </g>
        </g>
    </g>
</svg>