<svg width="300" height="300" viewBox="0 0 300 300" fill="none" xmlns="http://www.w3.org/2000/svg">
<path d="M290.625 0H221.875C216.719 0 212.5 4.21875 212.5 9.375V15.625C212.5 20.7812 216.719 25 221.875 25H257.344L182.734 99.6094C163.437 84.2187 139.062 75 112.5 75C50.3906 75 0 125.391 0 187.5C0 249.609 50.3906 300 112.5 300C174.609 300 225 249.609 225 187.5C225 160.938 215.781 136.563 200.391 117.266L275 42.6562V78.125C275 83.2812 279.219 87.5 284.375 87.5H290.625C295.781 87.5 300 83.2812 300 78.125V9.375C300 4.21875 295.781 0 290.625 0ZM112.5 275C64.1406 275 25 235.938 25 187.5C25 139.141 64.0625 100 112.5 100C160.859 100 200 139.062 200 187.5C200 235.859 160.938 275 112.5 275Z" fill="black"/>
</svg>
