<svg xmlns="http://www.w3.org/2000/svg" viewBox="0 0 286.52 286.52"><defs><style>.cls-1{fill:#fff;}</style></defs><title>Asset 4</title><g id="Layer_2" data-name="Layer 2"><g id="Layer_1-2" data-name="Layer 1"><circle class="cls-1" cx="143.26" cy="143.26" r="143.26"/><path d="M151.47,246.48c7.2,6.4,23.22,13.93,37.15,17.47a105.1,105.1,0,0,0,26.6,3.21c-9.74,9.65-24.1,11.17-24.1,11.17C133.43,260.38,92.4,206.85,92.4,143.26A141.47,141.47,0,0,1,147.63,31s37,78.7-36.07,153.69c0,0,37.41-57.83,30.2-128.57C141.76,56.11,48.27,154.79,151.47,246.48Z"/><path d="M180.29,161.62a131.46,131.46,0,0,1-26.47,79.32s12-29.8,13.23-69.48c1.56-48.42-5-76.86-5-76.86A131.42,131.42,0,0,1,180.29,161.62Z"/></g></g></svg>