<svg width="300" height="300" viewBox="0 0 300 300" fill="none" xmlns="http://www.w3.org/2000/svg">
<path d="M262 112.179C262 50.2467 211.833 0 150 0C88.1667 0 38 50.2467 38 112.179C38 169.904 81.5556 217.502 137.556 223.656V242.214H97.1111C91.9778 242.214 87.7778 246.421 87.7778 251.562V257.795C87.7778 262.936 91.9778 267.143 97.1111 267.143H137.556V290.652C137.556 295.793 141.756 300 146.889 300H153.111C158.244 300 162.444 295.793 162.444 290.652V267.143H202.889C208.022 267.143 212.222 262.936 212.222 257.795V251.562C212.222 246.421 208.022 242.214 202.889 242.214H162.444V223.656C218.444 217.502 262 169.904 262 112.179ZM62.8889 112.179C62.8889 63.9574 101.778 24.9286 150 24.9286C198.144 24.9286 237.111 63.8795 237.111 112.179C237.111 160.4 198.222 199.429 150 199.429C101.856 199.429 62.8889 160.478 62.8889 112.179Z" fill="black"/>
</svg>
